<mxfile host="app.diagrams.net" modified="2021-03-14T14:40:12.042Z" agent="5.0 (Windows NT 10.0; Win64; x64) AppleWebKit/537.36 (KHTML, like Gecko) Chrome/89.0.4389.82 Safari/537.36" etag="py0tV3gFO8ZU4m8Wafl_" version="14.4.3" type="github">
  <diagram id="XGmTM283f2upPylEM_hm" name="Page-1">
    <mxGraphModel dx="1502" dy="568" grid="1" gridSize="10" guides="1" tooltips="1" connect="1" arrows="1" fold="1" page="1" pageScale="1" pageWidth="850" pageHeight="1100" math="0" shadow="0">
      <root>
        <mxCell id="0" />
        <mxCell id="1" parent="0" />
        <mxCell id="I_VAa2MuaLFRDVZnbhv6-82" value="" style="rounded=0;whiteSpace=wrap;html=1;" parent="1" vertex="1">
          <mxGeometry x="710" y="1670" width="940" height="300" as="geometry" />
        </mxCell>
        <mxCell id="I_VAa2MuaLFRDVZnbhv6-80" value="" style="rounded=0;whiteSpace=wrap;html=1;" parent="1" vertex="1">
          <mxGeometry x="-230" y="990" width="820" height="560" as="geometry" />
        </mxCell>
        <mxCell id="I_VAa2MuaLFRDVZnbhv6-78" value="" style="rounded=0;whiteSpace=wrap;html=1;" parent="1" vertex="1">
          <mxGeometry x="800" y="715" width="950" height="720" as="geometry" />
        </mxCell>
        <mxCell id="I_VAa2MuaLFRDVZnbhv6-76" value="" style="rounded=0;whiteSpace=wrap;html=1;" parent="1" vertex="1">
          <mxGeometry x="950" y="120" width="435" height="410" as="geometry" />
        </mxCell>
        <mxCell id="I_VAa2MuaLFRDVZnbhv6-73" value="" style="rounded=0;whiteSpace=wrap;html=1;" parent="1" vertex="1">
          <mxGeometry x="150" y="10" width="490" height="750" as="geometry" />
        </mxCell>
        <mxCell id="I_VAa2MuaLFRDVZnbhv6-1" value="Tạo form đăng nhập / đăng ký" style="rounded=0;whiteSpace=wrap;html=1;fillColor=#d5e8d4;strokeColor=#82b366;" parent="1" vertex="1">
          <mxGeometry x="320" y="60" width="120" height="60" as="geometry" />
        </mxCell>
        <mxCell id="I_VAa2MuaLFRDVZnbhv6-2" value="Xem dịch vụ khám" style="rounded=0;whiteSpace=wrap;html=1;" parent="1" vertex="1">
          <mxGeometry x="320" y="230" width="120" height="60" as="geometry" />
        </mxCell>
        <mxCell id="I_VAa2MuaLFRDVZnbhv6-6" style="edgeStyle=orthogonalEdgeStyle;rounded=0;orthogonalLoop=1;jettySize=auto;html=1;entryX=0;entryY=0.5;entryDx=0;entryDy=0;" parent="1" source="I_VAa2MuaLFRDVZnbhv6-3" target="I_VAa2MuaLFRDVZnbhv6-4" edge="1">
          <mxGeometry relative="1" as="geometry" />
        </mxCell>
        <mxCell id="I_VAa2MuaLFRDVZnbhv6-8" style="edgeStyle=orthogonalEdgeStyle;rounded=0;orthogonalLoop=1;jettySize=auto;html=1;entryX=0;entryY=0.5;entryDx=0;entryDy=0;" parent="1" source="I_VAa2MuaLFRDVZnbhv6-3" target="I_VAa2MuaLFRDVZnbhv6-7" edge="1">
          <mxGeometry relative="1" as="geometry" />
        </mxCell>
        <mxCell id="I_VAa2MuaLFRDVZnbhv6-10" style="edgeStyle=orthogonalEdgeStyle;rounded=0;orthogonalLoop=1;jettySize=auto;html=1;entryX=0;entryY=0.5;entryDx=0;entryDy=0;" parent="1" source="I_VAa2MuaLFRDVZnbhv6-3" target="I_VAa2MuaLFRDVZnbhv6-9" edge="1">
          <mxGeometry relative="1" as="geometry" />
        </mxCell>
        <mxCell id="I_VAa2MuaLFRDVZnbhv6-14" style="edgeStyle=orthogonalEdgeStyle;rounded=0;orthogonalLoop=1;jettySize=auto;html=1;entryX=0;entryY=0.5;entryDx=0;entryDy=0;" parent="1" source="I_VAa2MuaLFRDVZnbhv6-3" target="I_VAa2MuaLFRDVZnbhv6-13" edge="1">
          <mxGeometry relative="1" as="geometry" />
        </mxCell>
        <mxCell id="I_VAa2MuaLFRDVZnbhv6-39" style="edgeStyle=orthogonalEdgeStyle;rounded=0;orthogonalLoop=1;jettySize=auto;html=1;entryX=0;entryY=0.5;entryDx=0;entryDy=0;" parent="1" source="I_VAa2MuaLFRDVZnbhv6-3" target="I_VAa2MuaLFRDVZnbhv6-38" edge="1">
          <mxGeometry relative="1" as="geometry" />
        </mxCell>
        <mxCell id="I_VAa2MuaLFRDVZnbhv6-3" value="Xem lịch sử khám bệnh" style="rounded=0;whiteSpace=wrap;html=1;" parent="1" vertex="1">
          <mxGeometry x="320" y="360" width="120" height="60" as="geometry" />
        </mxCell>
        <mxCell id="I_VAa2MuaLFRDVZnbhv6-4" value="&lt;div&gt;Ngày khám&lt;/div&gt;" style="rounded=0;whiteSpace=wrap;html=1;" parent="1" vertex="1">
          <mxGeometry x="490" y="270" width="120" height="60" as="geometry" />
        </mxCell>
        <mxCell id="I_VAa2MuaLFRDVZnbhv6-7" value="Bệnh" style="rounded=0;whiteSpace=wrap;html=1;" parent="1" vertex="1">
          <mxGeometry x="490" y="430" width="120" height="60" as="geometry" />
        </mxCell>
        <mxCell id="I_VAa2MuaLFRDVZnbhv6-9" value="Thuốc điều trị" style="rounded=0;whiteSpace=wrap;html=1;" parent="1" vertex="1">
          <mxGeometry x="490" y="510" width="120" height="60" as="geometry" />
        </mxCell>
        <mxCell id="I_VAa2MuaLFRDVZnbhv6-21" style="edgeStyle=orthogonalEdgeStyle;rounded=0;orthogonalLoop=1;jettySize=auto;html=1;entryX=0;entryY=0.5;entryDx=0;entryDy=0;" parent="1" source="I_VAa2MuaLFRDVZnbhv6-11" target="I_VAa2MuaLFRDVZnbhv6-17" edge="1">
          <mxGeometry relative="1" as="geometry" />
        </mxCell>
        <mxCell id="I_VAa2MuaLFRDVZnbhv6-22" style="edgeStyle=orthogonalEdgeStyle;rounded=0;orthogonalLoop=1;jettySize=auto;html=1;entryX=0;entryY=0.5;entryDx=0;entryDy=0;" parent="1" source="I_VAa2MuaLFRDVZnbhv6-11" target="I_VAa2MuaLFRDVZnbhv6-20" edge="1">
          <mxGeometry relative="1" as="geometry" />
        </mxCell>
        <mxCell id="I_VAa2MuaLFRDVZnbhv6-23" style="edgeStyle=orthogonalEdgeStyle;rounded=0;orthogonalLoop=1;jettySize=auto;html=1;entryX=0;entryY=0.5;entryDx=0;entryDy=0;" parent="1" source="I_VAa2MuaLFRDVZnbhv6-11" target="I_VAa2MuaLFRDVZnbhv6-18" edge="1">
          <mxGeometry relative="1" as="geometry" />
        </mxCell>
        <mxCell id="I_VAa2MuaLFRDVZnbhv6-24" style="edgeStyle=orthogonalEdgeStyle;rounded=0;orthogonalLoop=1;jettySize=auto;html=1;entryX=0;entryY=0.5;entryDx=0;entryDy=0;" parent="1" source="I_VAa2MuaLFRDVZnbhv6-11" target="I_VAa2MuaLFRDVZnbhv6-19" edge="1">
          <mxGeometry relative="1" as="geometry" />
        </mxCell>
        <mxCell id="I_VAa2MuaLFRDVZnbhv6-11" value="Chỉnh sửa thông tin bệnh án" style="rounded=0;whiteSpace=wrap;html=1;" parent="1" vertex="1">
          <mxGeometry x="1085" y="250" width="120" height="60" as="geometry" />
        </mxCell>
        <mxCell id="I_VAa2MuaLFRDVZnbhv6-12" value="Xem / Chỉnh sửa thông tin cá nhân" style="rounded=0;whiteSpace=wrap;html=1;" parent="1" vertex="1">
          <mxGeometry x="320" y="150" width="120" height="60" as="geometry" />
        </mxCell>
        <mxCell id="I_VAa2MuaLFRDVZnbhv6-13" value="Thể trạng lúc khám bệnh" style="rounded=0;whiteSpace=wrap;html=1;" parent="1" vertex="1">
          <mxGeometry x="490" y="350" width="120" height="60" as="geometry" />
        </mxCell>
        <mxCell id="I_VAa2MuaLFRDVZnbhv6-15" value="Bệnh nhân" style="shape=umlActor;verticalLabelPosition=bottom;verticalAlign=top;html=1;outlineConnect=0;" parent="1" vertex="1">
          <mxGeometry x="240" y="320" width="30" height="60" as="geometry" />
        </mxCell>
        <mxCell id="I_VAa2MuaLFRDVZnbhv6-27" style="edgeStyle=orthogonalEdgeStyle;rounded=0;orthogonalLoop=1;jettySize=auto;html=1;entryX=0;entryY=0.5;entryDx=0;entryDy=0;" parent="1" source="I_VAa2MuaLFRDVZnbhv6-16" target="I_VAa2MuaLFRDVZnbhv6-11" edge="1">
          <mxGeometry relative="1" as="geometry" />
        </mxCell>
        <mxCell id="I_VAa2MuaLFRDVZnbhv6-16" value="Bác sĩ" style="shape=umlActor;verticalLabelPosition=bottom;verticalAlign=top;html=1;outlineConnect=0;" parent="1" vertex="1">
          <mxGeometry x="995" y="210" width="30" height="60" as="geometry" />
        </mxCell>
        <mxCell id="I_VAa2MuaLFRDVZnbhv6-17" value="&lt;div&gt;Ngày khám&lt;/div&gt;" style="rounded=0;whiteSpace=wrap;html=1;" parent="1" vertex="1">
          <mxGeometry x="1245" y="180" width="120" height="60" as="geometry" />
        </mxCell>
        <mxCell id="I_VAa2MuaLFRDVZnbhv6-18" value="Bệnh" style="rounded=0;whiteSpace=wrap;html=1;" parent="1" vertex="1">
          <mxGeometry x="1245" y="340" width="120" height="60" as="geometry" />
        </mxCell>
        <mxCell id="I_VAa2MuaLFRDVZnbhv6-19" value="Thuốc điều trị" style="rounded=0;whiteSpace=wrap;html=1;" parent="1" vertex="1">
          <mxGeometry x="1245" y="420" width="120" height="60" as="geometry" />
        </mxCell>
        <mxCell id="I_VAa2MuaLFRDVZnbhv6-20" value="Thể trạng lúc khám bệnh" style="rounded=0;whiteSpace=wrap;html=1;" parent="1" vertex="1">
          <mxGeometry x="1245" y="260" width="120" height="60" as="geometry" />
        </mxCell>
        <mxCell id="I_VAa2MuaLFRDVZnbhv6-70" style="edgeStyle=orthogonalEdgeStyle;rounded=0;orthogonalLoop=1;jettySize=auto;html=1;entryX=0;entryY=0.5;entryDx=0;entryDy=0;" parent="1" source="I_VAa2MuaLFRDVZnbhv6-25" target="I_VAa2MuaLFRDVZnbhv6-30" edge="1">
          <mxGeometry relative="1" as="geometry" />
        </mxCell>
        <mxCell id="I_VAa2MuaLFRDVZnbhv6-25" value="Storage Manager" style="shape=umlActor;verticalLabelPosition=bottom;verticalAlign=top;html=1;outlineConnect=0;" parent="1" vertex="1">
          <mxGeometry x="860" y="990" width="30" height="60" as="geometry" />
        </mxCell>
        <mxCell id="I_VAa2MuaLFRDVZnbhv6-31" style="edgeStyle=orthogonalEdgeStyle;rounded=0;orthogonalLoop=1;jettySize=auto;html=1;entryX=0;entryY=0.5;entryDx=0;entryDy=0;" parent="1" source="I_VAa2MuaLFRDVZnbhv6-30" target="I_VAa2MuaLFRDVZnbhv6-32" edge="1">
          <mxGeometry relative="1" as="geometry">
            <mxPoint x="1130" y="980" as="targetPoint" />
          </mxGeometry>
        </mxCell>
        <mxCell id="I_VAa2MuaLFRDVZnbhv6-46" style="edgeStyle=orthogonalEdgeStyle;rounded=0;orthogonalLoop=1;jettySize=auto;html=1;entryX=0;entryY=0.5;entryDx=0;entryDy=0;" parent="1" source="I_VAa2MuaLFRDVZnbhv6-30" target="I_VAa2MuaLFRDVZnbhv6-37" edge="1">
          <mxGeometry relative="1" as="geometry">
            <Array as="points">
              <mxPoint x="1100" y="1030" />
              <mxPoint x="1100" y="1240" />
            </Array>
          </mxGeometry>
        </mxCell>
        <mxCell id="I_VAa2MuaLFRDVZnbhv6-30" value="Quản lý kho bệnh viện" style="rounded=0;whiteSpace=wrap;html=1;" parent="1" vertex="1">
          <mxGeometry x="950" y="1000" width="120" height="60" as="geometry" />
        </mxCell>
        <mxCell id="I_VAa2MuaLFRDVZnbhv6-34" style="edgeStyle=orthogonalEdgeStyle;rounded=0;orthogonalLoop=1;jettySize=auto;html=1;entryX=0;entryY=0.5;entryDx=0;entryDy=0;" parent="1" source="I_VAa2MuaLFRDVZnbhv6-32" target="I_VAa2MuaLFRDVZnbhv6-33" edge="1">
          <mxGeometry relative="1" as="geometry" />
        </mxCell>
        <mxCell id="I_VAa2MuaLFRDVZnbhv6-35" style="edgeStyle=orthogonalEdgeStyle;rounded=0;orthogonalLoop=1;jettySize=auto;html=1;entryX=0;entryY=0.5;entryDx=0;entryDy=0;" parent="1" source="I_VAa2MuaLFRDVZnbhv6-32" target="I_VAa2MuaLFRDVZnbhv6-36" edge="1">
          <mxGeometry relative="1" as="geometry">
            <mxPoint x="1300" y="1020" as="targetPoint" />
          </mxGeometry>
        </mxCell>
        <mxCell id="I_VAa2MuaLFRDVZnbhv6-32" value="Quản lý thiết bị y tế" style="rounded=0;whiteSpace=wrap;html=1;" parent="1" vertex="1">
          <mxGeometry x="1130" y="940" width="120" height="60" as="geometry" />
        </mxCell>
        <mxCell id="I_VAa2MuaLFRDVZnbhv6-33" value="&lt;div&gt;Hàng dùng 1 lần&lt;/div&gt;&lt;div&gt;(găng tay, kim tiêm,..)&lt;/div&gt;&lt;div&gt;Quan tâm nhập nhiều lần khi sử dụng&lt;br&gt;&lt;/div&gt;" style="rounded=0;whiteSpace=wrap;html=1;" parent="1" vertex="1">
          <mxGeometry x="1350" y="860" width="160" height="100" as="geometry" />
        </mxCell>
        <mxCell id="I_VAa2MuaLFRDVZnbhv6-36" value="&lt;div&gt;Hàng dùng nhiều lần&lt;/div&gt;&lt;div&gt;(giường bệnh, máy móc, ...)&lt;/div&gt;&lt;div&gt;Quan tâm số lượng&lt;br&gt;&lt;/div&gt;" style="rounded=0;whiteSpace=wrap;html=1;" parent="1" vertex="1">
          <mxGeometry x="1350" y="1010" width="160" height="130" as="geometry" />
        </mxCell>
        <mxCell id="I_VAa2MuaLFRDVZnbhv6-48" style="edgeStyle=orthogonalEdgeStyle;rounded=0;orthogonalLoop=1;jettySize=auto;html=1;entryX=0;entryY=0.5;entryDx=0;entryDy=0;" parent="1" source="I_VAa2MuaLFRDVZnbhv6-37" target="I_VAa2MuaLFRDVZnbhv6-47" edge="1">
          <mxGeometry relative="1" as="geometry" />
        </mxCell>
        <mxCell id="I_VAa2MuaLFRDVZnbhv6-37" value="Quản lý thuốc" style="rounded=0;whiteSpace=wrap;html=1;" parent="1" vertex="1">
          <mxGeometry x="1120" y="1210" width="120" height="60" as="geometry" />
        </mxCell>
        <mxCell id="I_VAa2MuaLFRDVZnbhv6-38" value="Chi phí điều trị" style="rounded=0;whiteSpace=wrap;html=1;" parent="1" vertex="1">
          <mxGeometry x="490" y="600" width="120" height="60" as="geometry" />
        </mxCell>
        <mxCell id="I_VAa2MuaLFRDVZnbhv6-41" style="edgeStyle=orthogonalEdgeStyle;rounded=0;orthogonalLoop=1;jettySize=auto;html=1;entryX=0.991;entryY=0.647;entryDx=0;entryDy=0;entryPerimeter=0;" parent="1" source="I_VAa2MuaLFRDVZnbhv6-40" target="I_VAa2MuaLFRDVZnbhv6-33" edge="1">
          <mxGeometry relative="1" as="geometry" />
        </mxCell>
        <mxCell id="I_VAa2MuaLFRDVZnbhv6-40" value="Cộng vào phí điều trị" style="text;html=1;strokeColor=none;fillColor=none;align=center;verticalAlign=middle;whiteSpace=wrap;rounded=0;" parent="1" vertex="1">
          <mxGeometry x="1580" y="830" width="150" height="110" as="geometry" />
        </mxCell>
        <mxCell id="I_VAa2MuaLFRDVZnbhv6-45" style="edgeStyle=orthogonalEdgeStyle;rounded=0;orthogonalLoop=1;jettySize=auto;html=1;entryX=1;entryY=0.5;entryDx=0;entryDy=0;" parent="1" source="I_VAa2MuaLFRDVZnbhv6-44" target="I_VAa2MuaLFRDVZnbhv6-36" edge="1">
          <mxGeometry relative="1" as="geometry" />
        </mxCell>
        <mxCell id="I_VAa2MuaLFRDVZnbhv6-44" value="TÍnh riêng dịch vụ khám bệnh" style="text;html=1;strokeColor=none;fillColor=none;align=center;verticalAlign=middle;whiteSpace=wrap;rounded=0;" parent="1" vertex="1">
          <mxGeometry x="1580" y="1065" width="140" height="20" as="geometry" />
        </mxCell>
        <mxCell id="I_VAa2MuaLFRDVZnbhv6-47" value="Xuất / nhập thuốc" style="rounded=0;whiteSpace=wrap;html=1;" parent="1" vertex="1">
          <mxGeometry x="1360" y="1205" width="140" height="70" as="geometry" />
        </mxCell>
        <mxCell id="I_VAa2MuaLFRDVZnbhv6-71" style="edgeStyle=orthogonalEdgeStyle;rounded=0;orthogonalLoop=1;jettySize=auto;html=1;entryX=0;entryY=0.5;entryDx=0;entryDy=0;" parent="1" source="I_VAa2MuaLFRDVZnbhv6-49" target="I_VAa2MuaLFRDVZnbhv6-50" edge="1">
          <mxGeometry relative="1" as="geometry" />
        </mxCell>
        <mxCell id="I_VAa2MuaLFRDVZnbhv6-49" value="Admin" style="shape=umlActor;verticalLabelPosition=bottom;verticalAlign=top;html=1;outlineConnect=0;" parent="1" vertex="1">
          <mxGeometry x="-150" y="1140" width="30" height="60" as="geometry" />
        </mxCell>
        <mxCell id="I_VAa2MuaLFRDVZnbhv6-52" style="edgeStyle=orthogonalEdgeStyle;rounded=0;orthogonalLoop=1;jettySize=auto;html=1;entryX=0;entryY=0.5;entryDx=0;entryDy=0;" parent="1" source="I_VAa2MuaLFRDVZnbhv6-50" target="I_VAa2MuaLFRDVZnbhv6-51" edge="1">
          <mxGeometry relative="1" as="geometry" />
        </mxCell>
        <mxCell id="I_VAa2MuaLFRDVZnbhv6-54" style="edgeStyle=orthogonalEdgeStyle;rounded=0;orthogonalLoop=1;jettySize=auto;html=1;entryX=0;entryY=0.5;entryDx=0;entryDy=0;" parent="1" source="I_VAa2MuaLFRDVZnbhv6-50" target="I_VAa2MuaLFRDVZnbhv6-53" edge="1">
          <mxGeometry relative="1" as="geometry" />
        </mxCell>
        <mxCell id="I_VAa2MuaLFRDVZnbhv6-50" value="Quản lý nhân viên" style="rounded=0;whiteSpace=wrap;html=1;fillColor=#66FFB3;" parent="1" vertex="1">
          <mxGeometry x="-15" y="1140" width="120" height="60" as="geometry" />
        </mxCell>
        <mxCell id="I_VAa2MuaLFRDVZnbhv6-51" value="Quản lý tuyển dụng" style="rounded=0;whiteSpace=wrap;html=1;fillColor=#33FF99;" parent="1" vertex="1">
          <mxGeometry x="175" y="1100" width="120" height="60" as="geometry" />
        </mxCell>
        <mxCell id="I_VAa2MuaLFRDVZnbhv6-57" style="edgeStyle=orthogonalEdgeStyle;rounded=0;orthogonalLoop=1;jettySize=auto;html=1;entryX=0;entryY=0.5;entryDx=0;entryDy=0;" parent="1" source="I_VAa2MuaLFRDVZnbhv6-53" target="I_VAa2MuaLFRDVZnbhv6-56" edge="1">
          <mxGeometry relative="1" as="geometry" />
        </mxCell>
        <mxCell id="I_VAa2MuaLFRDVZnbhv6-59" style="edgeStyle=orthogonalEdgeStyle;rounded=0;orthogonalLoop=1;jettySize=auto;html=1;entryX=0;entryY=0.5;entryDx=0;entryDy=0;" parent="1" source="I_VAa2MuaLFRDVZnbhv6-53" target="I_VAa2MuaLFRDVZnbhv6-58" edge="1">
          <mxGeometry relative="1" as="geometry" />
        </mxCell>
        <mxCell id="I_VAa2MuaLFRDVZnbhv6-62" style="edgeStyle=orthogonalEdgeStyle;rounded=0;orthogonalLoop=1;jettySize=auto;html=1;entryX=0;entryY=0.5;entryDx=0;entryDy=0;" parent="1" source="I_VAa2MuaLFRDVZnbhv6-53" target="I_VAa2MuaLFRDVZnbhv6-60" edge="1">
          <mxGeometry relative="1" as="geometry" />
        </mxCell>
        <mxCell id="I_VAa2MuaLFRDVZnbhv6-53" value="Quản lý thông tin nhân viên" style="rounded=0;whiteSpace=wrap;html=1;fillColor=#66FFB3;" parent="1" vertex="1">
          <mxGeometry x="175" y="1225" width="120" height="60" as="geometry" />
        </mxCell>
        <mxCell id="I_VAa2MuaLFRDVZnbhv6-56" value="Lịch làm việc" style="rounded=0;whiteSpace=wrap;html=1;fillColor=#66FFB3;" parent="1" vertex="1">
          <mxGeometry x="385" y="1310" width="120" height="60" as="geometry" />
        </mxCell>
        <mxCell id="I_VAa2MuaLFRDVZnbhv6-58" value="Chức vụ" style="rounded=0;whiteSpace=wrap;html=1;fillColor=#66FFB3;" parent="1" vertex="1">
          <mxGeometry x="385" y="1410" width="120" height="60" as="geometry" />
        </mxCell>
        <mxCell id="I_VAa2MuaLFRDVZnbhv6-60" value="Thông tin cơ bản" style="rounded=0;whiteSpace=wrap;html=1;fillColor=#33FF99;" parent="1" vertex="1">
          <mxGeometry x="385" y="1200" width="120" height="60" as="geometry" />
        </mxCell>
        <mxCell id="I_VAa2MuaLFRDVZnbhv6-63" style="edgeStyle=orthogonalEdgeStyle;rounded=0;orthogonalLoop=1;jettySize=auto;html=1;entryX=0;entryY=0.5;entryDx=0;entryDy=0;" parent="1" source="I_VAa2MuaLFRDVZnbhv6-65" target="I_VAa2MuaLFRDVZnbhv6-66" edge="1">
          <mxGeometry relative="1" as="geometry" />
        </mxCell>
        <mxCell id="I_VAa2MuaLFRDVZnbhv6-64" style="edgeStyle=orthogonalEdgeStyle;rounded=0;orthogonalLoop=1;jettySize=auto;html=1;entryX=0;entryY=0.5;entryDx=0;entryDy=0;" parent="1" source="I_VAa2MuaLFRDVZnbhv6-65" target="I_VAa2MuaLFRDVZnbhv6-67" edge="1">
          <mxGeometry relative="1" as="geometry">
            <mxPoint x="1262.5" y="1720" as="targetPoint" />
          </mxGeometry>
        </mxCell>
        <mxCell id="I_VAa2MuaLFRDVZnbhv6-65" value="Quản lý tài chính" style="rounded=0;whiteSpace=wrap;html=1;" parent="1" vertex="1">
          <mxGeometry x="1102.5" y="1740" width="120" height="60" as="geometry" />
        </mxCell>
        <mxCell id="I_VAa2MuaLFRDVZnbhv6-66" value="Doanh thu quý hiện tại" style="rounded=0;whiteSpace=wrap;html=1;" parent="1" vertex="1">
          <mxGeometry x="1282.5" y="1800" width="120" height="60" as="geometry" />
        </mxCell>
        <mxCell id="I_VAa2MuaLFRDVZnbhv6-67" value="Chi phí quý hiện tại" style="rounded=0;whiteSpace=wrap;html=1;" parent="1" vertex="1">
          <mxGeometry x="1282.5" y="1700" width="120" height="60" as="geometry" />
        </mxCell>
        <mxCell id="I_VAa2MuaLFRDVZnbhv6-72" style="edgeStyle=orthogonalEdgeStyle;rounded=0;orthogonalLoop=1;jettySize=auto;html=1;entryX=0;entryY=0.5;entryDx=0;entryDy=0;" parent="1" source="I_VAa2MuaLFRDVZnbhv6-68" target="I_VAa2MuaLFRDVZnbhv6-65" edge="1">
          <mxGeometry relative="1" as="geometry" />
        </mxCell>
        <mxCell id="I_VAa2MuaLFRDVZnbhv6-68" value="Accountant" style="shape=umlActor;verticalLabelPosition=bottom;verticalAlign=top;html=1;outlineConnect=0;" parent="1" vertex="1">
          <mxGeometry x="957.5" y="1740" width="30" height="60" as="geometry" />
        </mxCell>
        <mxCell id="I_VAa2MuaLFRDVZnbhv6-74" value="&lt;div&gt;Homepage&lt;/div&gt;&lt;div&gt;và&lt;/div&gt;&lt;div&gt;tài khoản khách hàng&lt;br&gt;&lt;/div&gt;" style="text;html=1;strokeColor=none;fillColor=none;align=center;verticalAlign=middle;whiteSpace=wrap;rounded=0;" parent="1" vertex="1">
          <mxGeometry x="160" y="10" width="120" height="150" as="geometry" />
        </mxCell>
        <mxCell id="I_VAa2MuaLFRDVZnbhv6-77" value="Tài khoản bác sĩ" style="text;html=1;strokeColor=none;fillColor=none;align=center;verticalAlign=middle;whiteSpace=wrap;rounded=0;" parent="1" vertex="1">
          <mxGeometry x="995" y="150" width="70" height="20" as="geometry" />
        </mxCell>
        <mxCell id="I_VAa2MuaLFRDVZnbhv6-79" value="Tài khoản quản lý kho" style="text;html=1;strokeColor=none;fillColor=none;align=center;verticalAlign=middle;whiteSpace=wrap;rounded=0;" parent="1" vertex="1">
          <mxGeometry x="900" y="780" width="150" height="20" as="geometry" />
        </mxCell>
        <mxCell id="I_VAa2MuaLFRDVZnbhv6-81" value="&lt;div&gt;Tài khoản&lt;/div&gt;&lt;div&gt;admin&lt;br&gt;&lt;/div&gt;" style="text;html=1;strokeColor=none;fillColor=none;align=center;verticalAlign=middle;whiteSpace=wrap;rounded=0;" parent="1" vertex="1">
          <mxGeometry x="-210" y="1040" width="160" height="20" as="geometry" />
        </mxCell>
        <mxCell id="I_VAa2MuaLFRDVZnbhv6-83" value="Tài khoản kiểm toán" style="text;html=1;strokeColor=none;fillColor=none;align=center;verticalAlign=middle;whiteSpace=wrap;rounded=0;" parent="1" vertex="1">
          <mxGeometry x="745" y="1700" width="100" height="20" as="geometry" />
        </mxCell>
        <mxCell id="I_VAa2MuaLFRDVZnbhv6-86" value="Không database bỏ qua" style="text;html=1;strokeColor=none;fillColor=none;align=center;verticalAlign=middle;whiteSpace=wrap;rounded=0;" parent="1" vertex="1">
          <mxGeometry x="775" y="1830" width="85" height="20" as="geometry" />
        </mxCell>
        <mxCell id="mijpiBY--RYvPaBXDb3O-1" value="&lt;b&gt;&lt;font color=&quot;#00cccc&quot;&gt;Đào Thành&lt;/font&gt;&lt;/b&gt;" style="text;html=1;strokeColor=none;fillColor=none;align=center;verticalAlign=middle;whiteSpace=wrap;rounded=0;" parent="1" vertex="1">
          <mxGeometry x="-90" y="1030" width="65" height="40" as="geometry" />
        </mxCell>
        <mxCell id="ZCvPj9Bnyj2WQoyR1ZNv-1" value="&lt;font color=&quot;#ff0d0d&quot; size=&quot;1&quot;&gt;&lt;b style=&quot;font-size: 20px&quot;&gt;Lê Tuấn Minh&lt;/b&gt;&lt;/font&gt;" style="text;html=1;align=center;verticalAlign=middle;resizable=0;points=[];autosize=1;" parent="1" vertex="1">
          <mxGeometry x="490" y="30" width="140" height="20" as="geometry" />
        </mxCell>
        <mxCell id="KwIfmnC8kuaTNsX9p0gN-2" value="&lt;font style=&quot;font-size: 18px&quot; color=&quot;#006600&quot;&gt;Trung Hiếu&lt;br&gt;&lt;/font&gt;" style="text;html=1;strokeColor=none;fillColor=none;align=center;verticalAlign=middle;whiteSpace=wrap;rounded=0;" parent="1" vertex="1">
          <mxGeometry x="1103" y="150" width="40" height="20" as="geometry" />
        </mxCell>
        <mxCell id="PJ-jsfJL7NN6ZxZP8UzC-1" value="&lt;font style=&quot;font-size: 20px&quot; color=&quot;#ff66ff&quot;&gt;HUY&lt;/font&gt;" style="text;html=1;strokeColor=none;fillColor=none;align=center;verticalAlign=middle;whiteSpace=wrap;rounded=0;" parent="1" vertex="1">
          <mxGeometry x="800" y="1200" width="130" height="70" as="geometry" />
        </mxCell>
      </root>
    </mxGraphModel>
  </diagram>
</mxfile>
